# xmcd CD database file
#
# Track frame offsets:
#	150
#	14740
#	27673
#	41677
#	53644
#	76780
#	90331
#	113294
#	127665
#	150343
#	167911
#	185648
#	201648
#	227291
#	243662
#	258592
#	271018
#	285303
#	314035
#
# Disc length: 4536 seconds
#
# Revision: 2
# Processed by: cddbd v1.5.1PL0 Copyright (c) Steve Scherf et al.
# Submitted via: CDex 1.51
#
DISCID=f511b613
DTITLE=Joe Pass - The Complete Pacific Jazz Quartet Sessions [CD1]
DYEAR=1900
DGENRE=Jazz
TTITLE0=Catch Me (Forward Pass)
TTITLE1=Days Of Wine And Roses
TTITLE2=You Stepped Out Of A Dream3
TTITLE3=But Beautiful
TTITLE4=Mood Indigo
TTITLE5=It's Allright With Me
TTITLE6=Deep Purple
TTITLE7=Tangerine
TTITLE8=There Will Never Be Another You
TTITLE9=Bag's Groove
TTITLE10=There Is No Greater Love
TTITLE11=The Night Has A Thousand Eyes
TTITLE12=No Cover, No Minimum
TTITLE13=Just Friends
TTITLE14=Walking Up
TTITLE15=Peri's Scope
TTITLE16=Catch Me
TTITLE17=Summertime
TTITLE18=Falling In Love With Love
EXTD=
EXTT0=
EXTT1=
EXTT2=
EXTT3=
EXTT4=
EXTT5=
EXTT6=
EXTT7=
EXTT8=
EXTT9=
EXTT10=
EXTT11=
EXTT12=
EXTT13=
EXTT14=
EXTT15=
EXTT16=
EXTT17=
EXTT18=
PLAYORDER=
